# xmcd CD database file
# Copyright (C) 1993-1998 Ti Kan
# 
# Track frame offsets:
#     150
#     13432
#     27007
#     41582
#     55925
#     69475
#     86667
#     100692
#     116105
#     127902
#     141252
#     154900
#     170390
#     184410
#     196632
#     208562
#     224057
#     236742
#     246502
#     256627
#     267025
#     282232
#     296942
#     309162
#     321317
# 
# Disc length: 4430 seconds
# 
# Revision: 1
# Processed by: cddbd v1.4b41PL1 Copyright (c) Steve Scherf et al.
# Submitted via: DiscPlay 4.0.4
# 
DISCID=79114c19
DTITLE=Joe Tex - 25 Greatest Hits
DYEAR=1900
DGENRE=
TTITLE0=Show Me
TTITLE1=You Better Believe It, Baby
TTITLE2=Skinny Legs And All
TTITLE3=Woman Like That, Yeah
TTITLE4=I've Got To Do A Little Bit Better
TTITLE5=That's The Way
TTITLE6=Hold What You Got
TTITLE7=You Better Get It
TTITLE8=A Sweet Woman Like You
TTITLE9=The Love You Save (May Be Your Own)
TTITLE10=I Believe I'm Gonna Make It
TTITLE11=A Womans's Hands
TTITLE12=I'll Never Do You Wrong
TTITLE13=Keep The One You've Got
TTITLE14=A Woman (Can Change A Man)
TTITLE15=Buying A Book
TTITLE16=S.Y.S.L.J.F.M. (Letter Song)
TTITLE17=I Want To (Do Everything For You)
TTITLE18=You Got What It Takes
TTITLE19=Don't Let Your Left Hand Know
TTITLE20=You Need Me Baby
TTITLE21=Men Are Gettin' Scarce
TTITLE22=Papa Was Too (Tramp)
TTITLE23=I Gotcha
TTITLE24=I'm A Man
EXTD=
EXTT0=
EXTT1=
EXTT2=
EXTT3=
EXTT4=
EXTT5=
EXTT6=
EXTT7=
EXTT8=
EXTT9=
EXTT10=
EXTT11=
EXTT12=
EXTT13=
EXTT14=
EXTT15=
EXTT16=
EXTT17=
EXTT18=
EXTT19=
EXTT20=
EXTT21=
EXTT22=
EXTT23=
EXTT24=
PLAYORDER=
